<svg width="25" height="20" viewBox="0 0 25 20" fill="none" xmlns="http://www.w3.org/2000/svg">
<path d="M0 1.25C0 0.559644 0.559644 0 1.25 0C1.94036 0 2.5 0.559644 2.5 1.25V18.75C2.5 19.4404 1.94036 20 1.25 20C0.559644 20 0 19.4404 0 18.75V1.25Z" fill="#F7123B"/>
<path d="M5 1.25C5 0.559644 5.55964 0 6.25 0C6.94036 0 7.5 0.559644 7.5 1.25V18.75C7.5 19.4404 6.94036 20 6.25 20C5.55964 20 5 19.4404 5 18.75V1.25Z" fill="#F7123B"/>
<path d="M10 1.25C10 0.559644 10.5596 0 11.25 0C11.9404 0 12.5 0.559644 12.5 1.25V18.75C12.5 19.4404 11.9404 20 11.25 20C10.5596 20 10 19.4404 10 18.75V1.25Z" fill="#F7123B"/>
<path d="M15 1.25C15 0.559644 15.5596 0 16.25 0H18.75C19.4404 0 20 0.559644 20 1.25V18.75C20 19.4404 19.4404 20 18.75 20H16.25C15.5596 20 15 19.4404 15 18.75V1.25Z" fill="#F7123B"/>
<path d="M22.5 1.25C22.5 0.559644 23.0596 0 23.75 0C24.4404 0 25 0.559644 25 1.25V18.75C25 19.4404 24.4404 20 23.75 20C23.0596 20 22.5 19.4404 22.5 18.75V1.25Z" fill="#F7123B"/>
</svg>
