<svg width="9" height="16" viewBox="0 0 9 16" fill="none" xmlns="http://www.w3.org/2000/svg">
<path d="M8.76738 7.11649L0.243908 0.149029C0.221635 0.130678 0.194869 0.119273 0.166683 0.116125C0.138497 0.112977 0.110034 0.118213 0.084563 0.131232C0.0590921 0.14425 0.0376465 0.164524 0.0226885 0.189724C0.00773064 0.214924 -0.000132753 0.244029 1.69567e-06 0.273695V1.80333C1.69567e-06 1.90029 0.0434889 1.9933 0.115337 2.05266L6.92202 7.61515L0.115337 13.1776C0.0415982 13.237 1.69567e-06 13.33 1.69567e-06 13.427V14.9566C1.69567e-06 15.0892 0.145589 15.1624 0.243908 15.0813L8.76738 8.11382C8.83983 8.05467 8.89843 7.97902 8.93874 7.89261C8.97905 7.8062 9 7.71131 9 7.61515C9 7.51899 8.97905 7.4241 8.93874 7.33769C8.89843 7.25128 8.83983 7.17563 8.76738 7.11649Z" fill="black"/>
</svg>
