<svg width="31" height="29" viewBox="0 0 31 29" fill="none" xmlns="http://www.w3.org/2000/svg">
<path d="M30.5212 10.4277L16.1801 0.218018C15.9826 0.0763659 15.7441 0 15.4993 0C15.2544 0 15.0159 0.0763659 14.8184 0.218018L0.477267 10.4277C0.279221 10.5686 0.131886 10.7673 0.0564117 10.9954C-0.0190631 11.2234 -0.0187967 11.4689 0.0571729 11.6968L5.53651 28.2166C5.61214 28.4441 5.75935 28.6424 5.95709 28.7832C6.15484 28.9239 6.39297 28.9998 6.63744 29H24.3647C24.8681 29 25.3099 28.6845 25.4656 28.2166L30.945 11.6968C31.0971 11.2288 30.9269 10.7184 30.5212 10.4277ZM27.3271 11.1331L23.7599 12.2675L16.5169 7.13789V3.43689L27.3271 11.1331ZM13.8334 16.4577L10.6066 20.7933L8.60754 14.7951L13.8334 16.4577ZM9.62156 13.0262L14.4852 9.58395V14.5753L9.62156 13.0262ZM15.4993 17.5921L18.8998 22.1617H12.0987L15.4993 17.5921ZM16.5169 9.58395L21.377 13.0262L16.5169 14.5718V9.58395ZM17.1651 16.4577L22.391 14.7951L20.3919 20.7933L17.1651 16.4577ZM14.4852 3.43689V7.13789L7.23861 12.2675L3.67143 11.1331L14.4852 3.43689ZM3.08837 13.0403L6.22097 14.0365L9.13266 22.7714L7.18429 25.3912L3.08837 13.0403ZM8.8031 26.5894L10.6247 24.1433H20.3774L22.199 26.5894H8.8031ZM23.8142 25.3912L21.8659 22.7714L24.7775 14.0365L27.9101 13.0403L23.8142 25.3912Z" fill="#00722D"/>
</svg>
