<svg width="23" height="27" viewBox="0 0 23 27" fill="none" xmlns="http://www.w3.org/2000/svg">
<path d="M17.8035 3.69952L17.8162 3.69303H17.8226L11.5 0L5.18058 3.69303H5.1742L5.19653 3.70276L0 6.75V20.25L11.5 27L23 20.25V6.75L17.8035 3.69952ZM10.5653 24.2611L6.00042 21.5805V17.0502L1.86616 14.6618V8.98594L10.5653 14.0906V24.2611ZM2.76574 7.31791L7.06269 4.79315L11.4936 7.37957L15.9309 4.78666L20.2438 7.31791L11.5064 12.4453L2.76574 7.31791ZM21.1338 14.678L17.0251 17.0502V21.5643L12.4347 24.2578V14.0971L21.1338 8.99243V14.678Z" fill="#FFD600"/>
</svg>
