<svg width="42" height="42" viewBox="0 0 42 42" fill="none" xmlns="http://www.w3.org/2000/svg">
<path d="M26.1943 21.9411C26.4901 21.6474 26.6547 21.2495 26.6547 20.8349C26.6547 20.4182 26.4901 20.0203 26.1943 19.7286L18.9318 12.4953C18.3193 11.887 17.3297 11.8891 16.7214 12.4995C16.113 13.112 16.113 14.1016 16.7255 14.7099L22.8776 20.8349L16.7255 26.9599C16.113 27.5682 16.113 28.5557 16.7214 29.1682C17.3297 29.7807 18.3193 29.7828 18.9318 29.1724L26.1943 21.9411Z" fill="black"/>
<path d="M0 20.8332C0 21.8957 0.0791667 22.9603 0.2375 23.9978C0.364583 24.8248 1.13333 25.4019 1.96458 25.2644C2.79167 25.1373 3.35833 24.3644 3.23333 23.5394C3.09792 22.654 3.02917 21.7436 3.02917 20.8332C3.02917 11.0165 11.0167 3.03109 20.8333 3.03109C30.65 3.03109 38.6375 11.0165 38.6375 20.8332C38.6375 30.6519 30.65 38.6373 20.8333 38.6373C15.2646 38.6373 10.1187 36.1061 6.72083 31.6873C6.20625 31.0269 5.25625 30.8998 4.59375 31.4123C3.93333 31.9207 3.80833 32.8748 4.31875 33.5373C8.29792 38.7019 14.3167 41.6665 20.8333 41.6665C32.3208 41.6665 41.6667 32.3207 41.6667 20.8332C41.6667 9.34567 32.3208 -0.000167847 20.8333 -0.000167847C9.34583 -0.000167847 0 9.34567 0 20.8332Z" fill="black"/>
</svg>
