<svg width="27" height="28" viewBox="0 0 27 28" fill="none" xmlns="http://www.w3.org/2000/svg">
<path fill-rule="evenodd" clip-rule="evenodd" d="M0 0H1.6875V26.25H27V28H0V0ZM16.875 6.125C16.875 5.64175 17.2528 5.25 17.7188 5.25H24.4688C24.9347 5.25 25.3125 5.64175 25.3125 6.125V13.125C25.3125 13.6082 24.9347 14 24.4688 14C24.0028 14 23.625 13.6082 23.625 13.125V8.57623L17.528 16.3041C17.3771 16.4954 17.1551 16.6116 16.917 16.6239C16.6789 16.6362 16.4469 16.5435 16.2784 16.3687L11.9141 11.8428L5.74487 20.6397C5.47079 21.0305 4.94309 21.1169 4.56623 20.8326C4.18937 20.5484 4.10605 20.0012 4.38013 19.6103L11.1301 9.98535C11.2753 9.77839 11.5005 9.6477 11.7465 9.62768C11.9925 9.60766 12.2346 9.70033 12.4091 9.88128L16.8124 14.4476L22.6882 7H17.7188C17.2528 7 16.875 6.60825 16.875 6.125Z" fill="#009BFF"/>
</svg>
