<svg width="24" height="24" viewBox="0 0 24 24" fill="none" xmlns="http://www.w3.org/2000/svg">
<path d="M12.7744 1.52844C12.5179 1.50953 12.2602 1.5 12.0018 1.5V0C12.2971 0 12.5916 0.010893 12.8847 0.0325082L12.7744 1.52844ZM15.7813 2.20357C15.3001 2.018 14.8059 1.86811 14.3027 1.75512L14.6314 0.291573C15.2065 0.420694 15.7713 0.591998 16.3212 0.804082L15.7813 2.20357ZM17.8362 3.26957C17.6213 3.12603 17.4018 2.99081 17.178 2.86408L17.9175 1.55895C18.1732 1.7038 18.4241 1.85832 18.6697 2.02236C18.9152 2.18641 19.154 2.35905 19.3857 2.53984L18.4627 3.72236C18.26 3.56418 18.051 3.41311 17.8362 3.26957ZM20.5877 5.95402C20.2908 5.53243 19.9632 5.13328 19.6075 4.75982L20.6941 3.72552C21.1005 4.15232 21.4749 4.60849 21.8143 5.0903L20.5877 5.95402ZM21.704 7.98182C21.6051 7.74312 21.4977 7.50874 21.3821 7.27907L22.7221 6.60466C22.8543 6.86715 22.977 7.13501 23.09 7.4078C23.203 7.68059 23.3057 7.95679 23.3979 8.23582L21.9734 8.70635C21.8927 8.46221 21.8029 8.22053 21.704 7.98182ZM22.5002 11.7423C22.4876 11.2268 22.4369 10.713 22.3488 10.2049L23.8269 9.94846C23.9277 10.5291 23.9855 11.1164 24 11.7055L22.5002 11.7423ZM22.3016 14.0484C22.352 13.795 22.3929 13.5405 22.4244 13.2853L23.9134 13.4689C23.8774 13.7606 23.8306 14.0515 23.773 14.3411C23.7154 14.6307 23.6472 14.9173 23.5689 15.2006L22.123 14.8005C22.1916 14.5527 22.2512 14.3019 22.3016 14.0484ZM20.8741 17.6175C21.15 17.1818 21.3935 16.7264 21.6025 16.255L22.974 16.8629C22.7351 17.4016 22.4569 17.9221 22.1416 18.42L20.8741 17.6175ZM19.4275 19.4246C19.6103 19.2419 19.7857 19.053 19.9537 18.8583L21.0897 19.8381C20.8977 20.0606 20.6972 20.2765 20.4884 20.4853L19.4275 19.4246Z" fill="#FDDE77"/>
<path d="M12.0018 1.5C10.2748 1.5 8.57447 1.92585 7.0514 2.73983C5.52832 3.5538 4.22953 4.73078 3.27006 6.16651C2.3106 7.60224 1.72007 9.2524 1.5508 10.9708C1.38152 12.6892 1.63872 14.4229 2.29961 16.0182C2.96051 17.6135 4.00469 19.0212 5.33968 20.1166C6.67466 21.212 8.25924 21.9614 9.95305 22.2982C11.6469 22.6351 13.3976 22.5491 15.0503 22.0479C16.7029 21.5466 18.2064 20.6456 19.4275 19.4246L20.4884 20.4853C19.0927 21.8807 17.3745 22.9104 15.4857 23.4833C13.597 24.0561 11.5962 24.1544 9.66037 23.7694C7.72459 23.3844 5.91364 22.528 4.38794 21.2761C2.86225 20.0242 1.66889 18.4154 0.913586 16.5922C0.15828 14.769 -0.135662 12.7877 0.057795 10.8238C0.251252 8.85988 0.926138 6.97399 2.02267 5.33316C3.11921 3.69232 4.60354 2.3472 6.3442 1.41694C8.08485 0.486685 10.0281 0 12.0018 0V1.5Z" fill="#FDDE77"/>
<path d="M11.2517 4.5C11.666 4.5 12.0018 4.83579 12.0018 5.25V13.0648L16.8746 15.8488C17.2343 16.0543 17.3593 16.5125 17.1538 16.8721C16.9482 17.2317 16.49 17.3567 16.1303 17.1512L10.8795 14.1512C10.6458 14.0177 10.5016 13.7691 10.5016 13.5V5.25C10.5016 4.83579 10.8374 4.5 11.2517 4.5Z" fill="#FDDE77"/>
</svg>
