<svg width="29" height="28" viewBox="0 0 29 28" fill="none" xmlns="http://www.w3.org/2000/svg">
<path fill-rule="evenodd" clip-rule="evenodd" d="M13.2374 0H7.16994e-06L5.57365 5.57364H18.811L13.2374 0ZM5.57364 5.57365V18.8111L0 13.2374V8.36493e-06L5.57364 5.57365Z" fill="#52F7FA"/>
<path d="M18.561 5.67719V18.2075L13.4874 13.1338V0.603557L18.561 5.67719ZM0.60355 13.4874H13.1339L18.2075 18.5611H5.6772L0.60355 13.4874Z" stroke="white" stroke-width="0.5"/>
<path fill-rule="evenodd" clip-rule="evenodd" d="M23.2616 9.18896H10.0242L15.5978 14.7626H28.8352L23.2616 9.18896ZM15.5978 14.7626V28L10.0242 22.4263V9.18897L15.5978 14.7626Z" fill="white"/>
<path fill-rule="evenodd" clip-rule="evenodd" d="M15.5978 28H28.8352L23.2616 22.4263H10.0242L15.5978 28ZM23.2616 22.4263V9.18896L28.8352 14.7626V28L23.2616 22.4263Z" fill="#6FF6DA"/>
</svg>
