<svg width="26" height="20" viewBox="0 0 26 20" fill="none" xmlns="http://www.w3.org/2000/svg">
<path d="M9.75 10C12.4424 10 14.625 7.76142 14.625 5C14.625 2.23858 12.4424 0 9.75 0C7.05761 0 4.875 2.23858 4.875 5C4.875 7.76142 7.05761 10 9.75 10Z" fill="#6FF6DA"/>
<path d="M1.625 20C1.625 20 0 20 0 18.3333C0 16.6667 1.625 11.6667 9.75 11.6667C17.875 11.6667 19.5 16.6667 19.5 18.3333C19.5 20 17.875 20 17.875 20H1.625Z" fill="#6FF6DA"/>
<path d="M17.875 2.5C17.875 2.03976 18.2388 1.66667 18.6875 1.66667H25.1875C25.6362 1.66667 26 2.03976 26 2.5C26 2.96024 25.6362 3.33333 25.1875 3.33333H18.6875C18.2388 3.33333 17.875 2.96024 17.875 2.5Z" fill="#6FF6DA"/>
<path d="M18.6875 6.66667C18.2388 6.66667 17.875 7.03976 17.875 7.5C17.875 7.96024 18.2388 8.33333 18.6875 8.33333H25.1875C25.6362 8.33333 26 7.96024 26 7.5C26 7.03976 25.6362 6.66667 25.1875 6.66667H18.6875Z" fill="#6FF6DA"/>
<path d="M21.9375 11.6667C21.4888 11.6667 21.125 12.0398 21.125 12.5C21.125 12.9602 21.4888 13.3333 21.9375 13.3333H25.1875C25.6362 13.3333 26 12.9602 26 12.5C26 12.0398 25.6362 11.6667 25.1875 11.6667H21.9375Z" fill="#6FF6DA"/>
<path d="M21.9375 16.6667C21.4888 16.6667 21.125 17.0398 21.125 17.5C21.125 17.9602 21.4888 18.3333 21.9375 18.3333H25.1875C25.6362 18.3333 26 17.9602 26 17.5C26 17.0398 25.6362 16.6667 25.1875 16.6667H21.9375Z" fill="#6FF6DA"/>
</svg>
