<svg width="60" height="66" viewBox="0 0 60 66" fill="none" xmlns="http://www.w3.org/2000/svg">
<path d="M35.2427 21.0081H24.7573C23.4684 21.0081 22.4272 22.0455 22.4272 23.3295V62.7938C22.4272 64.0778 23.4684 65.1152 24.7573 65.1152H35.2427C36.5316 65.1152 37.5728 64.0778 37.5728 62.7938V23.3295C37.5728 22.0455 36.5316 21.0081 35.2427 21.0081ZM57.6699 0.115234H47.1845C45.8956 0.115234 44.8544 1.15262 44.8544 2.43666V62.7938C44.8544 64.0778 45.8956 65.1152 47.1845 65.1152H57.6699C58.9587 65.1152 60 64.0778 60 62.7938V2.43666C60 1.15262 58.9587 0.115234 57.6699 0.115234ZM12.8155 41.9009H2.3301C1.04126 41.9009 0 42.9383 0 44.2224V62.7938C0 64.0778 1.04126 65.1152 2.3301 65.1152H12.8155C14.1044 65.1152 15.1456 64.0778 15.1456 62.7938V44.2224C15.1456 42.9383 14.1044 41.9009 12.8155 41.9009Z" fill="url(#paint0_linear_1_157)"/>
<defs>
<linearGradient id="paint0_linear_1_157" x1="30" y1="0.115234" x2="30" y2="65.1152" gradientUnits="userSpaceOnUse">
<stop offset="0.00463366" stop-color="#FFD600"/>
<stop offset="1" stop-color="#52F7FA"/>
</linearGradient>
</defs>
</svg>
