<svg width="59" height="60" viewBox="0 0 59 60" fill="none" xmlns="http://www.w3.org/2000/svg">
<path d="M42.9007 16.5288C44.1523 15.2829 44.1523 13.2525 42.9007 12.0066L38.2965 7.39873L38.303 7.40533C37.0845 6.18579 34.9898 4.08951 32.0257 1.12966C30.6293 -0.234897 28.3699 -0.221713 26.9867 1.16262L1.04727 27.1025C0.715396 27.4323 0.452006 27.8247 0.272269 28.2569C0.0925328 28.689 0 29.1525 0 29.6206C0 30.0888 0.0925328 30.5523 0.272269 30.9844C0.452006 31.4166 0.715396 31.8089 1.04727 32.1388L26.9801 58.0721C27.6487 58.7401 28.5548 59.1152 29.4996 59.1152C30.4443 59.1152 31.3505 58.7401 32.0191 58.0721L42.8941 47.1951C44.1457 45.9492 44.1457 43.9189 42.8941 42.673C42.293 42.0744 41.4795 41.7383 40.6315 41.7383C39.7835 41.7383 38.97 42.0744 38.3689 42.673L30.1352 50.9263C29.7927 51.269 29.2592 51.269 28.9166 50.9263L8.2007 30.2139C7.85817 29.8711 7.85817 29.3372 8.2007 28.9944L28.9101 8.28207C28.9364 8.2557 28.9693 8.23593 28.9957 8.20956C29.3382 7.93929 29.8125 7.96565 30.1286 8.28207L38.3755 16.5288C39.627 17.7813 41.6558 17.7813 42.9007 16.5288ZM22.6327 29.7525C22.6327 31.6092 23.3704 33.3899 24.6835 34.7028C25.9966 36.0157 27.7776 36.7533 29.6346 36.7533C31.4916 36.7533 33.2726 36.0157 34.5857 34.7028C35.8988 33.3899 36.6366 31.6092 36.6366 29.7525C36.6366 27.8958 35.8988 26.1151 34.5857 24.8022C33.2726 23.4893 31.4916 22.7517 29.6346 22.7517C27.7776 22.7517 25.9966 23.4893 24.6835 24.8022C23.3704 26.1151 22.6327 27.8958 22.6327 29.7525ZM57.9519 27.2079L49.8566 19.1458C48.605 17.8999 46.5763 17.8999 45.3313 19.1524C45.0338 19.4489 44.7977 19.8012 44.6366 20.1892C44.4755 20.5773 44.3925 20.9933 44.3925 21.4135C44.3925 21.8337 44.4755 22.2497 44.6366 22.6378C44.7977 23.0258 45.0338 23.3781 45.3313 23.6746L50.7985 29.1394C51.141 29.4822 51.141 30.0162 50.7985 30.359L45.4104 35.7447C45.1128 36.0411 44.8767 36.3935 44.7156 36.7815C44.5545 37.1695 44.4716 37.5856 44.4716 38.0058C44.4716 38.426 44.5545 38.842 44.7156 39.23C44.8767 39.618 45.1128 39.9704 45.4104 40.2669C46.0115 40.8654 46.825 41.2015 47.673 41.2015C48.521 41.2015 49.3345 40.8654 49.9356 40.2669L57.9585 32.2443C58.2892 31.9136 58.5515 31.5208 58.7302 31.0884C58.9089 30.6561 59.0006 30.1926 59 29.7247C58.9994 29.2569 58.9065 28.7937 58.7266 28.3618C58.5468 27.9299 58.2835 27.5378 57.9519 27.2079Z" fill="url(#paint0_linear_1_167)"/>
<defs>
<linearGradient id="paint0_linear_1_167" x1="17.5" y1="5.11523" x2="35" y2="59.1152" gradientUnits="userSpaceOnUse">
<stop stop-color="white"/>
<stop offset="1" stop-color="#FF2C2C"/>
</linearGradient>
</defs>
</svg>
