<svg width="72" height="51" viewBox="0 0 72 51" fill="none" xmlns="http://www.w3.org/2000/svg">
<path d="M66.5 5.61523H50H49.5V22.6152H66.5V5.61523Z" fill="white"/>
<path d="M45 27.1152H27.5294H27V45.1152H45V27.1152Z" fill="white"/>
<path d="M69.3578 0.115234H24.7706C23.3092 0.115234 22.1284 1.29901 22.1284 2.76424V22.3007H2.6422C1.18073 22.3007 0 23.4844 0 24.9497V47.4662C0 48.9315 1.18073 50.1152 2.6422 50.1152H47.2294C48.6908 50.1152 49.8716 48.9315 49.8716 47.4662V27.9298H69.3578C70.8193 27.9298 72 26.746 72 25.2808V2.76424C72 1.29901 70.8193 0.115234 69.3578 0.115234ZM44.2569 44.4861H27.7431V27.9298H44.2569V44.4861ZM66.3853 22.3007H49.8716V5.74437H66.3853V22.3007Z" fill="url(#paint0_linear_1_141)"/>
<defs>
<linearGradient id="paint0_linear_1_141" x1="23.9018" y1="0.115233" x2="48.4744" y2="50.2742" gradientUnits="userSpaceOnUse">
<stop stop-color="#FFD600"/>
<stop offset="1" stop-color="#42F5CE"/>
</linearGradient>
</defs>
</svg>
