<svg width="475" height="65" viewBox="0 0 475 65" fill="none" xmlns="http://www.w3.org/2000/svg">
<path d="M162.903 12.3743C170.439 12.3743 176.045 13.9136 179.72 16.9921C183.432 20.034 185.288 25.0366 185.288 32C185.288 38.9633 183.451 43.9843 179.776 47.0628C176.1 50.1047 170.476 51.6257 162.903 51.6257H133V12.3743H162.903ZM147.367 22.7644V41.2356H159.116C162.532 41.2356 165.112 40.5026 166.857 39.0366C168.639 37.5707 169.53 35.2251 169.53 32C169.53 28.7749 168.639 26.4293 166.857 24.9634C165.112 23.4974 162.532 22.7644 159.116 22.7644H147.367Z" fill="white"/>
<path d="M232.784 46.8429C232.784 47.9424 232.821 48.8403 232.895 49.5366C233.007 50.233 233.23 50.8194 233.564 51.2958V51.6257H219.642C219.16 51.0759 218.918 50.0681 218.918 48.6021V47.6126C217.433 49.3351 215.317 50.6545 212.57 51.5707C209.86 52.4503 206.575 52.8901 202.714 52.8901C198.222 52.8901 194.547 52.1021 191.688 50.5262C188.867 48.9136 187.456 46.4215 187.456 43.0497C187.456 39.8246 188.384 37.4791 190.241 36.0131C192.134 34.5471 194.881 33.6859 198.482 33.4293L214.798 32.1099C215.949 32.0366 216.784 31.8534 217.304 31.5602C217.823 31.267 218.083 30.8089 218.083 30.1859C218.083 29.4162 217.582 28.8665 216.58 28.5366C215.614 28.1702 214.055 27.9869 211.902 27.9869C209.86 27.9869 208.227 28.2068 207.002 28.6466C205.814 29.0864 205.053 29.8377 204.719 30.9005H189.572C189.684 28.1885 190.63 26.0811 192.412 24.5785C194.194 23.0759 196.626 22.0497 199.707 21.5C202.825 20.9136 206.742 20.6204 211.457 20.6204C216.394 20.6204 220.366 20.8586 223.373 21.3351C226.38 21.8115 228.7 22.7461 230.334 24.1387C231.967 25.4948 232.784 27.4921 232.784 30.1309V46.8429ZM218.696 37.7722C218.399 37.9555 217.972 38.1204 217.415 38.267C216.858 38.377 216.32 38.4686 215.8 38.5419L206.334 39.6963C204.923 39.8796 203.865 40.2094 203.159 40.6859C202.491 41.1623 202.157 41.8586 202.157 42.7749C202.157 43.801 202.584 44.534 203.438 44.9738C204.329 45.4136 205.684 45.6335 207.503 45.6335C210.621 45.6335 213.257 45.0654 215.41 43.9293C217.601 42.7932 218.696 41.0524 218.696 38.7068V37.7722Z" fill="white"/>
<path d="M259.782 41.6754C261.935 41.6754 263.699 41.6021 265.072 41.4555V51.6257C264.181 51.7356 262.901 51.8455 261.23 51.9555C259.559 52.0654 257.982 52.1204 256.497 52.1204C252.562 52.1204 249.518 51.8089 247.364 51.1859C245.211 50.5262 243.689 49.4817 242.798 48.0524C241.944 46.623 241.517 44.6073 241.517 42.0052V29.5812H235.559V21.8848H241.517V13.9136H255.662V21.8848H265.128V29.5812H255.662V39.3115C255.662 40.2277 255.959 40.8508 256.552 41.1806C257.184 41.5105 258.26 41.6754 259.782 41.6754Z" fill="white"/>
<path d="M313.212 46.8429C313.212 47.9424 313.249 48.8403 313.324 49.5366C313.435 50.233 313.658 50.8194 313.992 51.2958V51.6257H300.07C299.588 51.0759 299.347 50.0681 299.347 48.6021V47.6126C297.862 49.3351 295.746 50.6545 292.998 51.5707C290.288 52.4503 287.003 52.8901 283.142 52.8901C278.65 52.8901 274.975 52.1021 272.116 50.5262C269.295 48.9136 267.884 46.4215 267.884 43.0497C267.884 39.8246 268.813 37.4791 270.669 36.0131C272.562 34.5471 275.309 33.6859 278.91 33.4293L295.226 32.1099C296.377 32.0366 297.212 31.8534 297.732 31.5602C298.251 31.267 298.511 30.8089 298.511 30.1859C298.511 29.4162 298.01 28.8665 297.008 28.5366C296.043 28.1702 294.483 27.9869 292.33 27.9869C290.288 27.9869 288.655 28.2068 287.43 28.6466C286.242 29.0864 285.481 29.8377 285.147 30.9005H270C270.112 28.1885 271.058 26.0811 272.84 24.5785C274.622 23.0759 277.054 22.0497 280.135 21.5C283.254 20.9136 287.17 20.6204 291.885 20.6204C296.822 20.6204 300.794 20.8586 303.801 21.3351C306.808 21.8115 309.129 22.7461 310.762 24.1387C312.395 25.4948 313.212 27.4921 313.212 30.1309V46.8429ZM299.124 37.7722C298.827 37.9555 298.4 38.1204 297.843 38.267C297.286 38.377 296.748 38.4686 296.228 38.5419L286.762 39.6963C285.351 39.8796 284.293 40.2094 283.588 40.6859C282.919 41.1623 282.585 41.8586 282.585 42.7749C282.585 43.801 283.012 44.534 283.866 44.9738C284.757 45.4136 286.112 45.6335 287.931 45.6335C291.049 45.6335 293.685 45.0654 295.838 43.9293C298.029 42.7932 299.124 41.0524 299.124 38.7068V37.7722Z" fill="white"/>
<path d="M345.95 11C355.491 11 362.674 12.7225 367.5 16.1675C372.363 19.6126 374.795 24.8901 374.795 32C374.795 39.1099 372.363 44.3874 367.5 47.8325C362.674 51.2775 355.491 53 345.95 53C336.446 53 329.263 51.2775 324.4 47.8325C319.574 44.3874 317.161 39.1099 317.161 32C317.161 24.8901 319.574 19.6126 324.4 16.1675C329.263 12.7225 336.446 11 345.95 11ZM345.95 42.3351C350.293 42.3351 353.56 41.4555 355.751 39.6963C357.941 37.9005 359.036 35.3351 359.036 32C359.036 28.6649 357.941 26.1178 355.751 24.3586C353.56 22.5628 350.293 21.6649 345.95 21.6649C341.606 21.6649 338.34 22.5628 336.149 24.3586C333.996 26.1178 332.92 28.6649 332.92 32C332.92 35.3351 333.996 37.9005 336.149 39.6963C338.34 41.4555 341.606 42.3351 345.95 42.3351Z" fill="white"/>
<path d="M392.763 25.678H393.097C396.847 22.6361 401.803 21.1152 407.965 21.1152C412.754 21.1152 416.504 22.0864 419.214 24.0288C421.924 25.9346 423.279 28.8298 423.279 32.7147V51.6257H409.135V37.2225C409.135 35.2435 408.504 33.7958 407.242 32.8796C406.016 31.9633 404.216 31.5052 401.84 31.5052C399.353 31.5052 397.255 32.0733 395.548 33.2094C393.877 34.3089 393.042 36.178 393.042 38.8168V51.6257H378.898V21.8848H392.763V25.678Z" fill="white"/>
<path d="M475 36.7827C475 37.6623 474.963 38.6518 474.889 39.7513H441.979C442.239 41.6571 443.092 43.0681 444.54 43.9843C446.025 44.9005 448.253 45.3586 451.222 45.3586C453.895 45.3586 455.807 45.0654 456.958 44.4791C458.109 43.856 458.851 43.178 459.185 42.445H474.61C474.313 45.5969 472.476 48.1257 469.097 50.0314C465.756 51.9372 459.798 52.8901 451.222 52.8901C442.87 52.8901 436.781 51.534 432.958 48.822C429.134 46.0733 427.222 42.0602 427.222 36.7827C427.222 31.5052 429.115 27.4921 432.902 24.7435C436.726 21.9948 442.795 20.6204 451.111 20.6204C459.352 20.6204 465.385 21.9948 469.209 24.7435C473.07 27.4921 475 31.5052 475 36.7827ZM451.111 28.1518C448.475 28.1518 446.433 28.5183 444.986 29.2513C443.575 29.9843 442.647 31.1204 442.201 32.6597H460.021C459.575 31.1204 458.629 29.9843 457.181 29.2513C455.77 28.5183 453.747 28.1518 451.111 28.1518Z" fill="white"/>
<path d="M43.461 37.4875H64.2211C63.1747 44.0562 59.9369 50.0777 55.0342 54.5728C48.5013 60.6179 39.9294 63.6378 29.3187 63.6325H0V0H29.3187C39.9241 0 48.4959 3.01722 55.0342 9.05171C59.9392 13.5582 63.1767 19.5904 64.2211 26.1689H32.1265V45.5688H43.461V37.4875Z" fill="white"/>
<path d="M82.1514 0.00549669C86.2408 -0.0739632 90.3011 0.708861 94.0678 2.30299C97.8345 3.89711 101.223 6.26679 104.013 9.25769C110.002 15.5039 113 23.1008 113 32.1735C113 41.2461 110.017 48.8352 104.013 55.0033C101.243 58.0273 97.8607 60.4268 94.0913 62.0423C90.3218 63.6577 86.2517 64.4521 82.1514 64.3726C78.0398 64.4434 73.9595 63.6455 70.1774 62.0309C66.3954 60.4164 62.9967 58.0217 60.2038 55.0033C55.6067 50.2866 52.629 44.0792 51.7012 37.5585L82.1514 37.429V26.2909H51.7012C52.6427 19.7493 55.6172 14.0161 60.2038 9.25769C63.0159 6.27185 66.4208 3.90649 70.2003 2.31321C73.9798 0.71994 78.0505 -0.066093 82.1514 0.00549669Z" fill="white"/>
</svg>
