<svg width="87" height="23" viewBox="0 0 87 23" fill="none" xmlns="http://www.w3.org/2000/svg">
<path fill-rule="evenodd" clip-rule="evenodd" d="M15.8464 0H8.58307e-06L6.67216 6.67215H22.5185L15.8464 0ZM6.67215 6.67216V22.5185L0 15.8463V1.00136e-05L6.67215 6.67216Z" fill="#8B8B8B"/>
<path fill-rule="evenodd" clip-rule="evenodd" d="M6.67216 22.5185H22.5185L15.8464 15.8463H0L6.67216 22.5185ZM15.8464 15.8463V0L22.5185 6.67215V22.5185L15.8464 15.8463Z" fill="white"/>
<path d="M43.575 5.5H45.075V14.695H50.76V16H43.575V5.5ZM56.8058 16.12C55.7458 16.12 54.7908 15.89 53.9408 15.43C53.0908 14.96 52.4208 14.315 51.9308 13.495C51.4508 12.675 51.2108 11.76 51.2108 10.75C51.2108 9.74 51.4508 8.825 51.9308 8.005C52.4208 7.185 53.0908 6.545 53.9408 6.085C54.7908 5.615 55.7458 5.38 56.8058 5.38C57.8558 5.38 58.8058 5.615 59.6558 6.085C60.5058 6.545 61.1708 7.185 61.6508 8.005C62.1308 8.815 62.3708 9.73 62.3708 10.75C62.3708 11.77 62.1308 12.69 61.6508 13.51C61.1708 14.32 60.5058 14.96 59.6558 15.43C58.8058 15.89 57.8558 16.12 56.8058 16.12ZM56.8058 14.785C57.5758 14.785 58.2658 14.61 58.8758 14.26C59.4958 13.91 59.9808 13.43 60.3308 12.82C60.6908 12.2 60.8708 11.51 60.8708 10.75C60.8708 9.99 60.6908 9.305 60.3308 8.695C59.9808 8.075 59.4958 7.59 58.8758 7.24C58.2658 6.89 57.5758 6.715 56.8058 6.715C56.0358 6.715 55.3358 6.89 54.7058 7.24C54.0858 7.59 53.5958 8.075 53.2358 8.695C52.8858 9.305 52.7108 9.99 52.7108 10.75C52.7108 11.51 52.8858 12.2 53.2358 12.82C53.5958 13.43 54.0858 13.91 54.7058 14.26C55.3358 14.61 56.0358 14.785 56.8058 14.785ZM71.7135 10.69H73.1535V14.785C72.6335 15.215 72.0285 15.545 71.3385 15.775C70.6485 16.005 69.9285 16.12 69.1785 16.12C68.1185 16.12 67.1635 15.89 66.3135 15.43C65.4635 14.96 64.7935 14.32 64.3035 13.51C63.8235 12.69 63.5835 11.77 63.5835 10.75C63.5835 9.73 63.8235 8.81 64.3035 7.99C64.7935 7.17 65.4635 6.53 66.3135 6.07C67.1735 5.61 68.1385 5.38 69.2085 5.38C70.0485 5.38 70.8085 5.52 71.4885 5.8C72.1785 6.07 72.7635 6.47 73.2435 7L72.3135 7.93C71.4735 7.12 70.4585 6.715 69.2685 6.715C68.4685 6.715 67.7485 6.89 67.1085 7.24C66.4785 7.58 65.9835 8.06 65.6235 8.68C65.2635 9.29 65.0835 9.98 65.0835 10.75C65.0835 11.51 65.2635 12.2 65.6235 12.82C65.9835 13.43 66.4785 13.91 67.1085 14.26C67.7485 14.61 68.4635 14.785 69.2535 14.785C70.1935 14.785 71.0135 14.56 71.7135 14.11V10.69ZM80.5404 16.12C79.4804 16.12 78.5254 15.89 77.6754 15.43C76.8254 14.96 76.1554 14.315 75.6654 13.495C75.1854 12.675 74.9454 11.76 74.9454 10.75C74.9454 9.74 75.1854 8.825 75.6654 8.005C76.1554 7.185 76.8254 6.545 77.6754 6.085C78.5254 5.615 79.4804 5.38 80.5404 5.38C81.5904 5.38 82.5404 5.615 83.3904 6.085C84.2404 6.545 84.9054 7.185 85.3854 8.005C85.8654 8.815 86.1054 9.73 86.1054 10.75C86.1054 11.77 85.8654 12.69 85.3854 13.51C84.9054 14.32 84.2404 14.96 83.3904 15.43C82.5404 15.89 81.5904 16.12 80.5404 16.12ZM80.5404 14.785C81.3104 14.785 82.0004 14.61 82.6104 14.26C83.2304 13.91 83.7154 13.43 84.0654 12.82C84.4254 12.2 84.6054 11.51 84.6054 10.75C84.6054 9.99 84.4254 9.305 84.0654 8.695C83.7154 8.075 83.2304 7.59 82.6104 7.24C82.0004 6.89 81.3104 6.715 80.5404 6.715C79.7704 6.715 79.0704 6.89 78.4404 7.24C77.8204 7.59 77.3304 8.075 76.9704 8.695C76.6204 9.305 76.4454 9.99 76.4454 10.75C76.4454 11.51 76.6204 12.2 76.9704 12.82C77.3304 13.43 77.8204 13.91 78.4404 14.26C79.0704 14.61 79.7704 14.785 80.5404 14.785Z" fill="white"/>
</svg>
