<svg width="233" height="188" viewBox="0 0 233 188" fill="none" xmlns="http://www.w3.org/2000/svg">
<g filter="url(#filter0_bd_85_17)">
<path d="M219.105 31.3103H118.555L85.7008 0.60212C85.2828 0.219712 84.7329 0.00479771 84.1603 0H12.9627C8.00521 0 4 3.91378 4 8.75812V170.783C4 175.628 8.00521 179.541 12.9627 179.541H219.105C224.063 179.541 228.068 175.628 228.068 170.783V40.0684C228.068 35.224 224.063 31.3103 219.105 31.3103Z" fill="white"/>
<path d="M118.213 31.6755L118.357 31.8103H118.555H219.105C223.798 31.8103 227.568 35.511 227.568 40.0684V170.783C227.568 175.341 223.798 179.041 219.105 179.041H12.9627C8.27041 179.041 4.5 175.341 4.5 170.783V8.75812C4.5 4.20075 8.27041 0.5 12.9627 0.5H84.1581C84.6071 0.504243 85.0363 0.672755 85.3615 0.969359C85.3621 0.969919 85.3627 0.97048 85.3633 0.971041L118.213 31.6755Z" stroke="#FAFAFA"/>
</g>
<defs>
<filter id="filter0_bd_85_17" x="-16" y="-20" width="264.068" height="219.541" filterUnits="userSpaceOnUse" color-interpolation-filters="sRGB">
<feFlood flood-opacity="0" result="BackgroundImageFix"/>
<feGaussianBlur in="BackgroundImage" stdDeviation="10"/>
<feComposite in2="SourceAlpha" operator="in" result="effect1_backgroundBlur_85_17"/>
<feColorMatrix in="SourceAlpha" type="matrix" values="0 0 0 0 0 0 0 0 0 0 0 0 0 0 0 0 0 0 127 0" result="hardAlpha"/>
<feOffset dy="4"/>
<feGaussianBlur stdDeviation="2"/>
<feComposite in2="hardAlpha" operator="out"/>
<feColorMatrix type="matrix" values="0 0 0 0 0 0 0 0 0 0 0 0 0 0 0 0 0 0 0.25 0"/>
<feBlend mode="normal" in2="effect1_backgroundBlur_85_17" result="effect2_dropShadow_85_17"/>
<feBlend mode="normal" in="SourceGraphic" in2="effect2_dropShadow_85_17" result="shape"/>
</filter>
</defs>
</svg>
